<svg xmlns="http://www.w3.org/2000/svg" width="93.317" height="53.996" viewBox="0 0 93.317 53.996"><defs><style>.a{fill:#006eb6;}.b{fill:#d2d2d2;}</style></defs><g transform="translate(0 0)"><path class="a" d="M11.059,10.176V5.669a3.719,3.719,0,0,0-.051-.619,4.547,4.547,0,0,0,.62.05h3.4c2.587,0,4.1.4,4.1,2.752,0,1.528-.942,2.891-4,2.891h-3.5a5.471,5.471,0,0,0-.609.039A5.16,5.16,0,0,0,11.059,10.176Zm0,10.347V15.308a4.2,4.2,0,0,0-.042-.61,5.014,5.014,0,0,0,.61.043H14.5c2.292,0,5.1,0,5.1,3.174,0,2.351-2.009,3.174-4.712,3.174H11.626a4.485,4.485,0,0,0-.6.045S11.059,20.822,11.059,20.523ZM2.818,2.3l0,21.71c0,.7.042.955-.457,1.264a4.713,4.713,0,0,1-1.792.489l-.015,0c-.081.02-.066.323.015.323H18.127c7.408,0,10.523-2.94,10.523-7.526,0-3.389-1.579-5.462-4.7-6.241a.051.051,0,0,1,0-.1c1.991-.622,3.823-2.063,3.823-5.593,0-4.786-3.233-6.407-10.288-6.407H.571c-.081,0-.1.3-.016.323l.015,0a4.74,4.74,0,0,1,1.792.489C2.86,1.346,2.818,1.592,2.818,2.3Z" transform="translate(-0.31 -0.22)"/><path class="a" d="M124.667,2.3c0-.7-.041-.951.458-1.26a4.735,4.735,0,0,1,1.792-.49l.015,0c.081-.02.066-.323-.015-.323H113.963c-.081,0-.1.3-.016.323l.015,0a3.623,3.623,0,0,1,1.686.489c.5.309.457.558.457,1.262V15.345c0,2.975-1.7,5.261-5.087,5.261s-5.088-2.286-5.088-5.261V2.3c0-.7-.041-.955.458-1.264a3.839,3.839,0,0,1,1.685-.489l.016,0c.081-.02.065-.323-.016-.323H95.848c-.091,0-.073.3,0,.322l.015,0A1.586,1.586,0,0,1,96.9.834c.408.346.473.76.473,1.463V15.122c0,6.183,3.384,11.434,13.65,11.434s13.649-5.25,13.649-11.434Z" transform="translate(-33.669 -0.22)"/><path class="a" d="M67.178,26.086c.081,0,.1-.3.017-.322l-.016,0a4.728,4.728,0,0,1-1.791-.489c-.5-.309-.458-.56-.458-1.264V15.768l8.958-13.3A6.4,6.4,0,0,1,75.1,1.017,3.864,3.864,0,0,1,75.43.787,1.794,1.794,0,0,1,76.4.545l.014,0c.082-.01.107-.32.013-.32H64.343c-.1,0-.079.316.006.324l.014,0c.586,0,1.308,0,1.191.846-.068.817-3.549,5.853-4.789,7.765a2.367,2.367,0,0,0-.376.9,2.3,2.3,0,0,0-.4-.9c-1.729-2.574-4.685-6.748-4.77-7.77-.071-.873.6-.848,1.191-.848a.047.047,0,0,1,.016,0c.083-.008.114-.322.015-.322H43.752c-.075,0-.067.292.008.321l.015,0a3.351,3.351,0,0,1,1.472.327,2.313,2.313,0,0,1,.32.212,5.853,5.853,0,0,1,1.141,1.382l8.946,13.246v8.3c0,.7.042.955-.457,1.265a4.725,4.725,0,0,1-1.792.489l-.015,0c-.081.02-.065.322.016.322Z" transform="translate(-15.434 -0.22)"/><g transform="translate(12.578 37.431)"><path class="a" d="M33.479,71.823c-1.731,1.731-3.638,2.484-6.851,2.484-1.1,0-2.887-.051-3.815-.051s-2.084.051-3.188.051c-.075,0-.1-.3.025-.326a4.056,4.056,0,0,0,1.706-.427c.328-.175.526-.6.526-5.546V64.345c0-4.943-.2-5.4-.526-5.548a4.1,4.1,0,0,0-1.706-.425c-.126-.026-.1-.327-.025-.327,1.1,0,2.257.051,3.188.051s3.237-.051,4.366-.051c5.045,0,8.683,3.387,8.683,7.931A8.407,8.407,0,0,1,33.479,71.823ZM26.4,58.873c-1.506,0-2.134.2-2.309.427-.151.2-.376,1.305-.376,4.969v3.74c0,3.213.226,4.468.551,4.819.453.476,1.029.653,2.336.653,4.918,0,7.176-2.335,7.176-7.053C33.78,62.587,31.194,58.873,26.4,58.873Z" transform="translate(-19.562 -57.894)"/><path class="a" d="M60.489,74.264c-.075,0-.1-.3,0-.326.777-.076,1.255-.226,1.255-.6,0-.428-.327-1.556-1.758-5.171H54.793c-1.181,3.239-1.456,4.468-1.456,5,0,.451.35.677,1.431.777.1.026.074.326,0,.326H49.623c-.076,0-.126-.3,0-.326a3.277,3.277,0,0,0,1.579-.476c.252-.2.7-.554,2.51-5.5l1.33-3.664c.779-2.108,1.608-4.292,2.235-6.249.049-.176.8-.176.852,0,.753,2.183,1.406,3.965,2.284,6.249l1.43,3.664c1.957,4.943,2.284,5.32,2.634,5.546a3.065,3.065,0,0,0,1.508.427c.1.026.075.326,0,.326ZM57.377,61.088l-2.208,6.048h4.442Z" transform="translate(-30.059 -57.85)"/><path class="a" d="M91.8,74.307c-.1,0-.1-.3.025-.326a4.048,4.048,0,0,0,1.705-.427c.3-.175.526-.6.526-5.546V66.452H84.571v1.556c0,4.943.227,5.371.528,5.546a4.054,4.054,0,0,0,1.707.427c.125.026.125.326.051.326H80.482c-.076,0-.1-.3.025-.326a4.059,4.059,0,0,0,1.706-.427c.326-.175.527-.6.527-5.546V64.345c0-4.943-.2-5.4-.527-5.548a4.1,4.1,0,0,0-1.706-.425c-.126-.026-.1-.327-.025-.327h6.376c.075,0,.075.3-.051.327A4.094,4.094,0,0,0,85.1,58.8c-.3.152-.528.6-.528,5.548v1.179h9.487V64.345c0-4.943-.224-5.4-.526-5.548a4.089,4.089,0,0,0-1.705-.425c-.126-.026-.126-.327-.025-.327h6.35c.1,0,.1.3-.025.327a4.109,4.109,0,0,0-1.709.425c-.3.152-.526.6-.526,5.548v3.664c0,4.943.227,5.371.526,5.546a4.069,4.069,0,0,0,1.709.427c.126.026.126.326.025.326Z" transform="translate(-40.867 -57.894)"/><path class="a" d="M123.99,74.377a7.931,7.931,0,0,1-8.182-8.082,8.48,8.48,0,0,1,8.535-8.484,7.916,7.916,0,0,1,8.181,8.082A8.462,8.462,0,0,1,123.99,74.377Zm-.126-15.636c-4.49,0-5.972,3.589-5.972,6.827,0,4.091,2.584,7.88,6.6,7.88,4.468,0,5.949-3.589,5.949-6.827C130.441,62.531,127.88,58.741,123.864,58.741Z" transform="translate(-53.255 -57.812)"/></g><path class="b" d="M.421,48.693a.21.21,0,1,0,0,.421H90.662a.21.21,0,1,0,0-.421Z" transform="translate(-0.21 -17.189)"/><g transform="translate(0.138 37.582)"><path class="a" d="M.475,74.3C.4,74.3.4,74,.5,73.977a5.62,5.62,0,0,0,1.933-.427c.3-.175.526-.6.526-5.544V64.343c0-4.942-.226-5.394-.526-5.546A5.661,5.661,0,0,0,.5,58.371c-.1-.025-.1-.326-.026-.326H7.25c.075,0,.1.3-.025.326a5.463,5.463,0,0,0-1.906.426c-.326.151-.553.6-.553,5.546v3.663c0,4.942.227,5.369.553,5.544a5.425,5.425,0,0,0,1.906.427c.125.026.1.326.025.326Z" transform="translate(-0.422 -58.045)"/></g></g></svg>