<svg xmlns="http://www.w3.org/2000/svg" width="93.191" height="52.966" viewBox="0 0 93.191 52.966"><defs><style>.a{fill:#b30838;}.b{fill:#c8980d;}</style></defs><path class="a" d="M9678.878,185.949c0-.7.041-1.149.513-1.39a6.526,6.526,0,0,1,1.733-.568l.018,0c.033-.008.035-.109-.018-.109h-13.047c-.05,0-.05.1-.016.108l.016,0a6.452,6.452,0,0,1,1.733.568c.473.24.513.689.513,1.393v13.036c0,2.973-1.7,5.256-5.082,5.256s-5.085-2.283-5.085-5.256l0-13.032c0-.7.042-1.156.514-1.4a6.577,6.577,0,0,1,1.733-.568l.016,0c.035-.008.035-.109-.018-.109h-12.317c-.053,0-.051.1-.017.109l.016,0a2.178,2.178,0,0,1,1.009.5,1.667,1.667,0,0,1,.512,1.458v12.812c0,6.177,3.378,11.422,13.636,11.422s13.637-5.245,13.637-11.422Z" transform="translate(-9587.974 -183.879)"/><path class="a" d="M9616.915,188.752h3.963c2.585,0,4.1.4,4.1,2.751,0,1.526-.941,2.888-3.994,2.888h-4.069Zm0,9.632h3.437c2.291,0,5.094,0,5.094,3.172,0,2.348-2.008,3.17-4.709,3.17h-3.821Zm-8.234-12.437,0,21.693c0,.7-.041,1.156-.513,1.4a6.5,6.5,0,0,1-1.734.568l-.014,0c-.036.008-.038.109.014.109h17.546c7.4,0,10.512-2.936,10.512-7.518,0-3.385-1.575-5.483-4.7-6.261-.019,0-.021-.048,0-.054,1.989-.622,3.818-2.08,3.818-5.606,0-4.781-3.228-6.4-10.275-6.4h-16.893c-.053,0-.051.1-.017.108l.015,0a6.466,6.466,0,0,1,1.735.568c.472.24.509.686.509,1.389" transform="translate(-9606.181 -183.879)"/><path class="a" d="M9646.922,183.991c.439,0,1.117.033,1.072,1.059-.037.894-4.625,7.389-5.16,8.364-1.609-2.437-5.131-7.393-5.164-8.364-.031-.794.635-1.057,1.219-1.057l.014,0c.035-.008.039-.109-.014-.109h-12.674c-.053,0-.053.1-.016.108l.016,0a4.616,4.616,0,0,1,1.426.473,2.115,2.115,0,0,1,.32.211,6.4,6.4,0,0,1,1.205,1.447l8.938,13.233v8.287c0,.7-.039,1.156-.512,1.4a6.507,6.507,0,0,1-1.732.568l-.016,0c-.037.008-.039.109.016.109h13.756c.053,0,.053-.1.016-.109l-.016,0a6.493,6.493,0,0,1-1.73-.568c-.473-.241-.516-.693-.516-1.4l0-8.232,8.949-13.288a6.436,6.436,0,0,1,1.205-1.448,3.447,3.447,0,0,1,.32-.245,2.587,2.587,0,0,1,1.01-.439l.016,0c.035-.008.037-.108-.016-.108h-11.934c-.053,0-.053.1-.018.108l.018,0" transform="translate(-9597.93 -183.879)"/><path class="b" d="M9697.239,206.509h-90.787a.21.21,0,0,1,0-.421h90.787a.21.21,0,0,1,0,.421" transform="translate(-9606.242 -174.615)"/><path class="a" d="M9617.008,225.555c-.1,0-.111-.106,0-.119a2.747,2.747,0,0,0,1.615-.584c.291-.271.492-.561.492-5.178v-1.453h-8.855v1.453c0,4.617.2,4.93.49,5.178a2.928,2.928,0,0,0,1.637.587c.076.009.074.116.006.116h-5.953a.06.06,0,0,1,0-.12,2.892,2.892,0,0,0,1.613-.582c.324-.252.494-.561.494-5.178v-3.422c0-4.616-.174-4.9-.494-5.178a2.821,2.821,0,0,0-1.609-.585c-.1-.011-.074-.118-.006-.118h5.953a.057.057,0,1,1,0,.113,2.99,2.99,0,0,0-1.639.59c-.3.244-.49.563-.49,5.178v1.1h8.855v-1.1c0-4.616-.2-4.92-.492-5.178a2.744,2.744,0,0,0-1.613-.592c-.086-.009-.1-.111,0-.111h5.928c.092,0,.086.1,0,.112a2.644,2.644,0,0,0-1.617.591c-.283.271-.49.563-.49,5.178v3.422c0,4.617.2,4.9.49,5.178a2.747,2.747,0,0,0,1.611.584c.088.01.1.119.006.119Z" transform="translate(-9606.189 -172.828)"/><path class="a" d="M9630.123,225.65a.058.058,0,0,1,0-.116c.727-.067,1.176-.4,1.176-.751,0-.4-.3-1.453-1.639-4.827H9624.8c-1.1,3.023-1.359,4.172-1.359,4.664,0,.422.324.818,1.332.914a.058.058,0,0,1,0,.116h-4.8a.06.06,0,0,1,0-.12,2.754,2.754,0,0,0,1.477-.629c.236-.184.654-.514,2.344-5.131l1.242-3.422c.727-1.967,1.523-4.01,2.111-5.837.021-.082.141-.367.4-.367.225,0,.332.292.355.374.7,2.038,1.326,3.7,2.146,5.83l1.334,3.422c1.828,4.617,2.1,4.889,2.463,5.178a2.419,2.419,0,0,0,1.41.587.058.058,0,0,1-.006.116Zm-2.9-12.3L9625.158,219h4.146Z" transform="translate(-9600.536 -172.924)"/><path class="a" d="M9655.981,225.65a.058.058,0,0,1-.006-.116c.729-.067,1.176-.4,1.176-.751,0-.4-.3-1.453-1.638-4.827h-4.853c-1.1,3.023-1.358,4.172-1.358,4.664,0,.422.326.818,1.334.914.073.007.073.116,0,.116h-4.8a.06.06,0,1,1,0-.12,2.764,2.764,0,0,0,1.476-.629c.235-.184.654-.514,2.343-5.131l1.24-3.422c.728-1.967,1.523-4.01,2.111-5.837.024-.082.144-.367.4-.367.224,0,.332.292.354.374.7,2.038,1.326,3.7,2.145,5.83l1.338,3.422c1.827,4.617,2.1,4.889,2.461,5.178a2.411,2.411,0,0,0,1.411.587.058.058,0,0,1-.007.116Zm-2.906-12.3L9651.015,219h4.146Z" transform="translate(-9589.754 -172.924)"/><path class="a" d="M9651.311,211.122c-.258.251-.655.514-2.412,5.13l-1.289,3.422c-.751,1.967-1.546,4.006-2.156,5.834a.409.409,0,0,1-.4.286.389.389,0,0,1-.4-.286c-.773-2.039-1.43-3.7-2.344-5.834l-.632-1.523-.655,1.523c-.868,1.967-1.758,4.006-2.462,5.834a.435.435,0,0,1-.415.268.393.393,0,0,1-.405-.268c-.656-2.039-1.219-3.7-2.017-5.834l-1.241-3.422c-1.546-4.122-1.905-4.82-2.342-5.154a2.909,2.909,0,0,0-1.526-.608.06.06,0,0,1,0-.119h5.507a.06.06,0,1,1,0,.119c-.869.089-1.359.444-1.359.818,0,.469.211,1.43,1.523,4.944l2.295,6.726,2.6-6-.3-.727c-1.781-4.122-2.148-4.784-2.625-5.154a2.941,2.941,0,0,0-1.546-.611.058.058,0,1,1,0-.116h10a.06.06,0,0,1,0,.119,2.24,2.24,0,0,0-1.388.632c-.3.265-.679.584-2.694,5.154,0-.024,2.719,6.7,2.719,6.7l2.531-6.726c1.218-3.208,1.4-4.311,1.4-4.825,0-.422-.422-.836-1.4-.941-.1-.011-.071-.115,0-.115h4.8a.059.059,0,0,1,0,.118,2.077,2.077,0,0,0-1.384.633m-9.276-.557c-.854.078-1.2.393-1.2.743,0,.422.14,1.1,1.077,3.4l.21.516a12.367,12.367,0,0,0,1.15-3.8c0-.4-.329-.785-1.241-.862" transform="translate(-9596.103 -172.828)"/><path class="a" d="M9658.132,225.555c-.069,0-.065-.116,0-.122a3.7,3.7,0,0,0,1.83-.581c.295-.244.49-.561.49-5.178v-3.422c0-4.616-.194-4.953-.49-5.178a4.158,4.158,0,0,0-1.826-.59.057.057,0,1,1,0-.113h6.326a.06.06,0,1,1,0,.12,3.79,3.79,0,0,0-1.8.582c-.32.252-.516.563-.516,5.178v3.422c0,4.617.2,4.927.516,5.178a4.077,4.077,0,0,0,1.8.585.059.059,0,1,1,0,.118Z" transform="translate(-9584.621 -172.828)"/><path class="a" d="M9665.938,225.555c-.07,0-.067-.116,0-.122a3.683,3.683,0,0,0,1.83-.581c.295-.244.491-.561.491-5.178v-3.422c0-4.616-.194-4.953-.491-5.178a4.128,4.128,0,0,0-1.825-.59.057.057,0,1,1,0-.113h6.327a.06.06,0,1,1,0,.12,3.8,3.8,0,0,0-1.8.582c-.321.252-.515.563-.515,5.178v3.422c0,4.617.2,4.927.515,5.178a4.068,4.068,0,0,0,1.806.585.059.059,0,1,1,0,.118Z" transform="translate(-9581.361 -172.828)"/></svg>