<svg xmlns="http://www.w3.org/2000/svg" width="93.317" height="26.406" viewBox="0 0 93.317 26.406"><defs><style>.a{fill:#002957;}</style></defs><path class="a" d="M94.055,75.689V71.167A3.757,3.757,0,0,0,94,70.543a4.634,4.634,0,0,0,.624.051h3.408c2.6,0,4.117.4,4.117,2.75,0,1.535-.945,2.9-4.016,2.9h-3.51c-.3,0-.607.034-.607.034A5.332,5.332,0,0,0,94.055,75.689Zm0,10.377V80.835A3.422,3.422,0,0,0,94,80.228s.3.034.607.034H97.5c2.295,0,5.112,0,5.112,3.189,0,2.362-2.008,3.172-4.724,3.172H94.612a4.236,4.236,0,0,0-.607.051A4.561,4.561,0,0,0,94.055,86.066ZM85.8,67.792V89.541c0,.709.034.962-.456,1.265a4.717,4.717,0,0,1-1.789.489h-.017c-.084.017-.067.321.017.321h17.6c7.424,0,10.546-2.953,10.546-7.542,0-3.391-1.586-5.467-4.708-6.26a.053.053,0,0,1,0-.1c1.991-.624,3.83-2.058,3.83-5.6,0-4.792-3.24-6.412-10.309-6.412H83.544c-.084,0-.1.3-.017.321h.017a4.628,4.628,0,0,1,1.789.489C85.838,66.847,85.8,67.1,85.8,67.792Z" transform="translate(-83.471 -65.7)"/><path class="a" d="M480.2,67.875c0-.709-.034-.945.456-1.265a4.717,4.717,0,0,1,1.789-.489h.017c.084-.017.068-.321-.017-.321H469.474c-.084,0-.1.3-.017.321h.017a3.576,3.576,0,0,1,1.687.489c.506.3.456.557.456,1.265V80.952c0,2.987-1.7,5.264-5.1,5.264s-5.1-2.295-5.1-5.264V67.875c0-.709-.034-.962.456-1.265a3.923,3.923,0,0,1,1.687-.489h.017c.084-.017.068-.321-.017-.321h-12.25c-.084,0-.068.3,0,.321h.017a1.589,1.589,0,0,1,1.029.287,1.682,1.682,0,0,1,.472,1.468V80.733c0,6.192,3.391,11.457,13.684,11.457S480.2,86.925,480.2,80.733V67.875Z" transform="translate(-389.205 -65.783)"/><path class="a" d="M273.97,91.8c.084,0,.1-.3.017-.321h-.017a4.628,4.628,0,0,1-1.789-.489c-.506-.3-.456-.557-.456-1.265V81.474l8.976-13.33a6.383,6.383,0,0,1,1.215-1.451c.068-.051.236-.169.337-.236a1.668,1.668,0,0,1,.962-.236h.017c.084-.017.1-.321.017-.321h-12.1c-.1,0-.084.321,0,.321h.017c.591,0,1.316,0,1.2.844-.068.827-3.56,5.872-4.792,7.778a2.1,2.1,0,0,0-.371.894,2.192,2.192,0,0,0-.4-.894c-1.738-2.582-4.691-6.766-4.775-7.778-.068-.877.607-.844,1.2-.844h.017c.084,0,.118-.321.017-.321H250.551c-.068,0-.068.287,0,.321h.017a3.31,3.31,0,0,1,1.468.321,1.809,1.809,0,0,1,.321.219,5.8,5.8,0,0,1,1.147,1.384l8.959,13.279v8.318c0,.709.034.962-.456,1.265a4.717,4.717,0,0,1-1.789.489H260.2c-.084.017-.068.321.017.321Z" transform="translate(-222.317 -65.866)"/></svg>