<svg xmlns="http://www.w3.org/2000/svg" width="87.206" height="69.52" viewBox="0 0 87.206 69.52"><defs><style>.a{fill:#ec970b;}.b{fill:#155132;}</style></defs><path class="a" d="M190.644,423.03l83.5,0v-.39l-83.5,0Z" transform="translate(-188.79 -387.342)"/><path class="b" d="M196.383,355.472h12.351c.965,0,1.528-.242,1.687-1.714h.178v7.584l-24.581.027v-.118c2.23-.1,2.389-.973,2.389-2.072V337.947c0-.861-.159-1.8-2.374-1.9v-.107h12.7v.107c-2.192.1-2.351.848-2.351,1.76Z" transform="translate(-186.019 -335.405)"/><path class="b" d="M255.073,359.447c0,.885-.159,1.65-2.421,1.748v.173H267.7c9.89,0,14.943-6.09,14.943-12.713,0-7.2-4.575-12.712-14.358-12.712H252.652v.142c2.262.1,2.421.843,2.421,1.987Zm7.976-17.8h3.8c5.637,0,7.925,2.9,7.925,7.009s-2.288,7.01-7.925,7.01h-3.8Z" transform="translate(-225.939 -335.405)"/><path class="b" d="M338.534,350.181l.125.095a1.861,1.861,0,0,0,0,1.625c.624,1.691,4.026,3.325,9.556,3.349,4.814.021,6.494-1.325,5.788-3.288-1.22-3.382-17.759.572-18.676-8.5-.485-4.807,4.281-8.805,12.1-8.854,7.763-.049,11.058,2.114,12.488,2.233a1.32,1.32,0,0,0,1.434-.621l.113.037-4.279,7.549-.1-.056a1.6,1.6,0,0,0,.147-.926c-.343-1.881-4.3-2.638-8.179-2.734-4.03-.1-5.764.8-5.641,2.31.348,4.29,18.654-1.406,18.654,9.712,0,4.158-3.81,8.749-13.688,8.749-8.879,0-11.036-2.11-12.253-2.223a1.529,1.529,0,0,0-1.723.812l-.1-.057Z" transform="translate(-274.855 -334.602)"/><path class="b" d="M193.441,450.232a3.7,3.7,0,0,0-.847.044,13.223,13.223,0,0,0-.046,2.111,6.98,6.98,0,0,0,.18,2.318,2.281,2.281,0,0,0,1.323.269,2.076,2.076,0,0,0,2.2-2.172,2.572,2.572,0,0,0-2.809-2.57m.149-4.279a2.469,2.469,0,0,0-.951.118,11.858,11.858,0,0,0-.09,2.452,7.587,7.587,0,0,0,.046,1.338,2.766,2.766,0,0,0,1.008.089,1.68,1.68,0,0,0,1.786-1.888,1.9,1.9,0,0,0-1.8-2.109m.028,9.331c-.651,0-.979-.029-1.53-.029s-1.217.029-1.885.029c-.044,0-.044-.133.013-.148a3.234,3.234,0,0,0,1.1-.207c.194-.105.313-.447.313-3.374v-2.169c0-2.927-.119-3.269-.313-3.374a3.242,3.242,0,0,0-1.1-.208c-.058-.013-.058-.147-.013-.147.668,0,1.337.029,1.885.029s.862-.029,1.53-.029c1.976,0,2.826,1.189,2.826,2.109a2.521,2.521,0,0,1-1.575,2.14c1.6.356,2.466,1.278,2.466,2.525,0,1.457-1.1,2.854-3.717,2.854" transform="translate(-188.506 -401.136)"/><path class="b" d="M226.224,446.054c-.119.1-.255.415-.255,3.328v2.5a3.483,3.483,0,0,1-3.669,3.493,3.44,3.44,0,0,1-3.731-3.463v-2.527c0-2.926-.131-3.268-.31-3.371a2.684,2.684,0,0,0-1.027-.209c-.058-.013-.058-.149-.014-.149H220.9c.044,0,.06.136-.016.149a3.06,3.06,0,0,0-1.068.209c-.194.1-.313.446-.313,3.371v2.26a2.952,2.952,0,0,0,3.134,3.149,2.737,2.737,0,0,0,2.809-2.987v-2.422c0-2.912-.134-3.223-.252-3.328a2.247,2.247,0,0,0-1.1-.253c-.075-.013-.045-.149,0-.149h3.164c.045,0,.061.136,0,.149-.594.06-.878.1-1.039.253" transform="translate(-204.692 -401.133)"/><path class="b" d="M254.233,455.183a3.134,3.134,0,0,1-2.3-.862,12.549,12.549,0,0,1,0-2.065c-.016-.075.162-.075.162.014a3.237,3.237,0,0,0,.449,1.471,2.119,2.119,0,0,0,1.885,1.055,1.8,1.8,0,0,0,1.872-1.916c0-2.215-3.938-2.587-3.938-5.038a2.447,2.447,0,0,1,2.558-2.479c1.129,0,1.321.4,1.858.265.057-.016.089.018.089.046,0,.52.028,1.217,0,2.006-.016.06-.166.06-.179-.016a2.364,2.364,0,0,0-.506-1.366,1.861,1.861,0,0,0-1.352-.579,1.6,1.6,0,0,0-1.65,1.62c0,1.857,4.1,2.631,4.1,5.053a2.842,2.842,0,0,1-3.046,2.792" transform="translate(-225.482 -400.96)"/><path class="b" d="M276.749,455.284c-.045,0-.045-.133.028-.148a3.586,3.586,0,0,0,1.13-.207c.192-.105.311-.447.311-3.374v-2.169c0-2.927-.119-3.269-.311-3.374a3.6,3.6,0,0,0-1.13-.208c-.073-.013-.073-.147-.028-.147h3.862c.044,0,.044.134-.017.147a3.7,3.7,0,0,0-1.143.208c-.177.1-.311.447-.311,3.374v2.169c0,2.927.133,3.269.311,3.374a3.685,3.685,0,0,0,1.143.207c.061.016.061.148.017.148Z" transform="translate(-240.358 -401.136)"/><path class="b" d="M306.551,446.022c-.118.12-.279.328-.264,3.254l.012,2.168c.016,1.25,0,2.57.077,3.731.013.073-.18.1-.255.029l-7.371-7.86.061,4.1c.028,2.705.222,3.122.415,3.284a2.983,2.983,0,0,0,1.085.253c.058,0,.045.194,0,.194h-3.419c-.045,0-.058-.18,0-.194a2.247,2.247,0,0,0,1.1-.282c.121-.12.283-.327.255-3.255l-.032-2.168c-.012-1.249-.012-2.571-.089-3.73,0-.075.224-.1.269-.028l7.385,7.9-.059-4.145c-.013-2.927-.239-3.151-.4-3.283a2.514,2.514,0,0,0-1.173-.254c-.06-.014-.044-.192,0-.192h3.445c.044,0,.061.178,0,.192a2.026,2.026,0,0,0-1.04.283" transform="translate(-252.421 -401.027)"/><path class="b" d="M340.048,455.055a2.315,2.315,0,0,1-1.143.178c-.89,0-1.351-.046-2.6-.046-.951,0-1.428.016-2.485.03-.041,0-.041-.134.017-.148a3.346,3.346,0,0,0,1.1-.207c.194-.106.31-.447.31-3.374V449.32c0-2.929-.117-3.27-.31-3.373a3.3,3.3,0,0,0-1.1-.208c-.058-.017-.058-.148-.017-.148,1.162.015,2.87.029,3.833.029a17.223,17.223,0,0,0,2.185-.074c.06,0,.09.029.09.059-.045.52-.077,1.1-.162,1.9-.017.06-.178.046-.178-.044a1.373,1.373,0,0,0-.255-.98c-.239-.267-.7-.477-1.752-.477-.58,0-1.2,0-1.353.031a13.725,13.725,0,0,0-.059,1.8v2.2h1.306c1.412,0,1.606-.207,1.7-.744,0-.058.162-.043.162,0-.013.419-.073,1.739-.073,2.156,0,.044-.166.044-.166-.016a1.031,1.031,0,0,0-.219-.713c-.136-.133-.372-.283-1.413-.283h-1.293v1.056a9.693,9.693,0,0,0,.239,3.12,3.112,3.112,0,0,0,1.529.194,2.244,2.244,0,0,0,1.71-.55,2.288,2.288,0,0,0,.489-1.055c.017-.089.166-.03.166.046a17,17,0,0,1-.255,1.812" transform="translate(-274.552 -401.07)"/><path class="b" d="M363.047,455.183a3.146,3.146,0,0,1-2.3-.862,12.839,12.839,0,0,1,0-2.065c-.014-.075.165-.075.165.014a3.242,3.242,0,0,0,.444,1.471,2.125,2.125,0,0,0,1.889,1.055,1.8,1.8,0,0,0,1.872-1.916c0-2.215-3.938-2.587-3.938-5.038a2.446,2.446,0,0,1,2.556-2.479c1.129,0,1.323.4,1.857.265.06-.016.09.018.09.046,0,.52.028,1.217,0,2.006-.015.06-.164.06-.179-.016a2.361,2.361,0,0,0-.506-1.366,1.856,1.856,0,0,0-1.352-.579,1.6,1.6,0,0,0-1.648,1.62c0,1.857,4.1,2.631,4.1,5.053a2.844,2.844,0,0,1-3.048,2.792" transform="translate(-290.673 -400.96)"/><path class="b" d="M387.363,455.183a3.148,3.148,0,0,1-2.3-.862,12.8,12.8,0,0,1,0-2.065c-.014-.075.166-.075.166.014a3.2,3.2,0,0,0,.445,1.471,2.118,2.118,0,0,0,1.887,1.055,1.8,1.8,0,0,0,1.87-1.916c0-2.215-3.938-2.587-3.938-5.038a2.448,2.448,0,0,1,2.558-2.479c1.129,0,1.323.4,1.858.265.057-.016.089.018.089.046,0,.52.028,1.217,0,2.006-.016.06-.164.06-.182-.016a2.343,2.343,0,0,0-.5-1.366,1.856,1.856,0,0,0-1.352-.579,1.6,1.6,0,0,0-1.648,1.62c0,1.857,4.1,2.631,4.1,5.053a2.843,2.843,0,0,1-3.047,2.792" transform="translate(-305.24 -400.96)"/><path class="b" d="M232.737,497.312c-.145.2-.777.487-2.009.487a3.311,3.311,0,0,1-3.634-3.335,3.462,3.462,0,0,1,3.613-3.5c1.171,0,1.72.4,2.094.322.04-.01.059.01.059.031.011.362.043.932.033,1.491-.009.051-.145.041-.145-.01a1.492,1.492,0,0,0-.4-.84,2.615,2.615,0,0,0-1.751-.663,2.577,2.577,0,0,0-2.639,2.869,3.05,3.05,0,0,0,2.8,3.262,2.042,2.042,0,0,0,1.666-.621,2.566,2.566,0,0,0,.437-.9c.008-.051.145-.01.145.031a5.054,5.054,0,0,1-.26,1.377" transform="translate(-210.627 -428.279)"/><path class="b" d="M252.058,491.349c-1.855,0-2.466,1.48-2.466,2.818a2.987,2.987,0,0,0,2.726,3.251c1.844,0,2.453-1.481,2.453-2.817,0-1.689-1.058-3.252-2.713-3.252m.051,6.452a3.274,3.274,0,0,1-3.377-3.335,3.5,3.5,0,0,1,3.521-3.5,3.268,3.268,0,0,1,3.378,3.335,3.493,3.493,0,0,1-3.523,3.5" transform="translate(-223.592 -428.281)"/><path class="b" d="M277.282,497.652c-.063.113-.187.187-.445.187-.629,0-1.274-.033-2.143-.033-.672,0-1.078.01-1.812.02-.032,0-.032-.122.01-.133a1.7,1.7,0,0,0,.705-.176c.133-.073.215-.249.215-2.289v-1.513c0-2.039-.081-2.226-.215-2.288a1.684,1.684,0,0,0-.705-.177c-.042-.01-.042-.136-.01-.136h2.63c.032,0,.032.126-.011.136a1.719,1.719,0,0,0-.713.177c-.125.061-.219.248-.219,2.288v1.513c0,1.327.094,1.9.227,2.029s.343.2.953.2a1.738,1.738,0,0,0,1.243-.342,2.35,2.35,0,0,0,.414-.88c.009-.061.145-.01.135.031a5.093,5.093,0,0,1-.259,1.388" transform="translate(-238.046 -428.371)"/><path class="b" d="M295.312,497.652c-.06.113-.184.187-.445.187-.629,0-1.272-.033-2.143-.033-.671,0-1.078.01-1.812.02-.032,0-.032-.122.01-.133a1.7,1.7,0,0,0,.7-.176c.133-.073.215-.249.215-2.289v-1.513c0-2.039-.081-2.226-.215-2.288a1.684,1.684,0,0,0-.7-.177c-.043-.01-.043-.136-.01-.136h2.629c.034,0,.034.126-.009.136a1.721,1.721,0,0,0-.715.177c-.125.061-.219.248-.219,2.288v1.513c0,1.327.094,1.9.227,2.029s.343.2.953.2a1.738,1.738,0,0,0,1.243-.342,2.284,2.284,0,0,0,.414-.88c.011-.061.145-.01.137.031a5.151,5.151,0,0,1-.262,1.388" transform="translate(-248.848 -428.371)"/><path class="b" d="M313.249,497.609c-.072.113-.2.187-.457.187-.63,0-1.273-.032-2.143-.032-.661,0-.993.01-1.729.02-.03,0-.03-.122.012-.133a1.7,1.7,0,0,0,.713-.176c.124-.073.217-.249.217-2.289v-1.513c0-2.039-.093-2.226-.217-2.287a1.687,1.687,0,0,0-.713-.177c-.042-.01-.042-.136-.012-.136.809.011,2,.022,2.672.022a12.86,12.86,0,0,0,1.553-.051c.043,0,.063.02.063.04-.032.363-.053.767-.126,1.327,0,.042-.133.031-.133-.031a.915.915,0,0,0-.178-.653c-.175-.186-.5-.279-1.23-.279-.4,0-.788.01-.891.022a11.267,11.267,0,0,0-.03,1.168v1.5h.846c.986,0,1.122-.115,1.182-.487.012-.041.145-.031.145,0-.021.57-.051.911-.051,1.5,0,.031-.145.031-.145-.01a.722.722,0,0,0-.154-.5c-.094-.093-.259-.165-.985-.165h-.839v.7c0,1.327.091,1.9.226,2.029s.342.2.952.2a1.613,1.613,0,0,0,1.192-.321,1.7,1.7,0,0,0,.332-.715c.011-.061.145-.021.135.032a4.29,4.29,0,0,1-.207,1.2" transform="translate(-259.638 -428.328)"/><path class="b" d="M334.166,494.694a1.3,1.3,0,0,0-.675.176c-.081.052-.133.207-.121,2.257l.009.093a4.7,4.7,0,0,1-2.288.581,3.424,3.424,0,1,1-.042-6.835c1.087,0,1.727.373,2.091.289.043-.01.061.011.061.033.023.361.063.931.051,1.49,0,.053-.134.053-.145-.011a1.454,1.454,0,0,0-.4-.827,2.729,2.729,0,0,0-1.76-.641,2.577,2.577,0,0,0-2.643,2.868,3.093,3.093,0,0,0,3.138,3.252,3.032,3.032,0,0,0,1.181-.239c-.019-2.175-.073-2.257-.164-2.309a2.267,2.267,0,0,0-.79-.176c-.042,0-.042-.135-.01-.135h2.517c.03,0,.03.135-.01.135" transform="translate(-270.747 -428.281)"/><path class="b" d="M354.861,497.609a.48.48,0,0,1-.455.187c-.633,0-1.275-.032-2.143-.032-.664,0-1,.01-1.732.02-.03,0-.03-.122.012-.133a1.714,1.714,0,0,0,.715-.176c.121-.073.215-.249.215-2.289v-1.513c0-2.039-.093-2.226-.215-2.287a1.7,1.7,0,0,0-.715-.177c-.042-.01-.042-.136-.012-.136.809.011,2,.022,2.674.022a12.841,12.841,0,0,0,1.551-.051c.042,0,.063.02.063.04-.032.363-.051.767-.126,1.327,0,.042-.133.031-.133-.031a.922.922,0,0,0-.176-.653c-.175-.186-.5-.279-1.231-.279-.406,0-.789.01-.891.022a10.924,10.924,0,0,0-.032,1.168v1.5h.849c.986,0,1.119-.115,1.182-.487.008-.041.145-.031.145,0-.021.57-.051.911-.051,1.5,0,.031-.145.031-.145-.01a.707.707,0,0,0-.157-.5c-.093-.093-.258-.165-.983-.165h-.839v.7c0,1.327.091,1.9.228,2.029s.34.2.952.2a1.608,1.608,0,0,0,1.189-.321,1.714,1.714,0,0,0,.333-.715c.01-.061.144-.021.136.032a4.369,4.369,0,0,1-.208,1.2" transform="translate(-284.567 -428.328)"/></svg>