<svg xmlns="http://www.w3.org/2000/svg" width="93.317" height="65.424" viewBox="0 0 93.317 65.424"><defs><style>.a{fill:#eba51b;}</style></defs><g transform="translate(1.19 42.234)"><g transform="translate(0.605)"><path class="a" d="M9.915,168.7c-.078,0-.078-.259,0-.259.052,0,.13.026.207.026,1.659,0,2.462-.674,2.462-2.2,0-1.426-.8-2.151-2.281-2.151a5.033,5.033,0,0,0-.622.052,9.308,9.308,0,0,0-.1,2v4.251c0,2,0,2.1,1.3,2.229.078,0,.1.285-.026.259a17.087,17.087,0,0,0-1.737-.078c-.8,0-1.477.026-2.074.078-.13.026-.052-.259-.026-.259,1.244-.13,1.322-.13,1.322-2.229v-4.225c0-2.1-.078-2.1-1.322-2.229-.052,0-.13-.259.026-.259a12.441,12.441,0,0,0,1.814.078c.363,0,1.3-.052,1.814-.052,1.866,0,3.136.907,3.136,2.307,0,1.633-1.452,2.67-3.681,2.67Z" transform="translate(-6.946 -163.502)"/><path class="a" d="M54.843,172.206c-.829,0-1.555.026-2.151.078-.1.026-.052-.259-.026-.259.648-.078.985-.052.985-.441a5.935,5.935,0,0,0-.544-1.763l-.415-1.115H49.5l-.492,1.115a5.475,5.475,0,0,0-.6,1.763c0,.311.259.389.907.441.078,0,.1.285-.026.259a9.944,9.944,0,0,0-1.348-.078,10.136,10.136,0,0,0-1.426.078c-.1.026-.052-.259-.026-.259.959-.078,1.3-.648,2-2.229L51.551,163a.157.157,0,0,1,.259,0L54.4,169.8c.648,1.711.907,2.151,2.074,2.255.052.026.1.259-.052.259A9.113,9.113,0,0,0,54.843,172.206Zm-5.158-3.888h2.877l-1.3-3.6Z" transform="translate(-36.218 -162.936)"/><path class="a" d="M105.619,163.6c-.648.078-2.7.078-4.121.078-1.4,0-3.422,0-3.992-.078-.181-.026-.259,1.763-.311,2.022-.026.052.233.078.285.052.156-.648.078-1.452,1.866-1.452H100.9v6.065c0,2.1-.052,2.1-1.3,2.229-.078.026-.1.285,0,.259a16.5,16.5,0,0,1,2.074-.078,17.077,17.077,0,0,1,1.737.078c.13.026.1-.259.026-.259-1.3-.1-1.3-.207-1.3-2.229v-6.065h1.477c1.84,0,1.581.829,1.711,1.452,0,.026.259.026.259-.026C105.515,165.491,105.775,163.573,105.619,163.6Z" transform="translate(-73.8 -163.427)"/><path class="a" d="M156.3,172.8c-.1.026-.078-.259,0-.259,1.089-.1,1.192-.13,1.192-2.229v-1.97h-5.314v1.97c0,2,.052,2.151,1.192,2.229.052.026.1.259-.052.259a14.166,14.166,0,0,0-1.607-.078c-.8,0-1.581.026-2.2.078-.1.026-.078-.259,0-.259,1.426-.156,1.426-.1,1.426-2.229v-4.225c0-2.126-.026-2.074-1.426-2.255-.078-.026-.1-.259,0-.233a18.979,18.979,0,0,0,2.2.078,13.849,13.849,0,0,0,1.607-.078c.13-.026.078.233.026.233-1.141.1-1.192.233-1.192,2.255v1.84h5.314v-1.84c0-2.1-.1-2.126-1.192-2.255-.078-.026-.1-.259,0-.233a14.4,14.4,0,0,0,1.944.078c.6,0,1.426-.026,1.866-.078.1-.026.078.233.026.233-1.452.13-1.426.207-1.426,2.255v4.225c0,2.048-.052,2.1,1.426,2.229.078,0,.1.285-.026.259-.441-.052-1.27-.078-1.866-.078A11.16,11.16,0,0,0,156.3,172.8Z" transform="translate(-112.501 -163.422)"/><path class="a" d="M221.05,163.595a6.441,6.441,0,0,1-1.322.078,10.789,10.789,0,0,1-1.4-.078c-.13-.026-.052.233-.026.233.7.078.907.181.907.544a5.163,5.163,0,0,1-.518,1.633l-2,5.08-1.659-4.9.026-.078c.648-1.581.933-2.177,1.814-2.255.052,0,.1-.259-.026-.233-.518.052-4.484.052-4.9,0-.1-.026-.052.233-.026.233,1.063.1,1.037.622,1.763,2.255l.389,1.063-1.555,3.888-1.711-5a5.98,5.98,0,0,1-.415-1.633c0-.415.285-.518,1.141-.6.052,0,.078-.259-.026-.233a22.141,22.141,0,0,1-2.385.078,12.879,12.879,0,0,1-1.5-.078c-.1-.026-.052.233-.026.233,1.063.1,1.218.622,1.918,2.255l2.411,6.765a.148.148,0,0,0,.233.026l2.1-5.029,1.789,5.029a.148.148,0,0,0,.233.026l2.825-6.791c.648-1.581.933-2.177,1.814-2.255C221.1,163.854,221.153,163.569,221.05,163.595Zm-5.936.778a3.418,3.418,0,0,1-.285,1.063,4.3,4.3,0,0,1-.207-1.011.4.4,0,0,1,.285-.441A.457.457,0,0,1,215.114,164.372Z" transform="translate(-155.56 -163.423)"/><path class="a" d="M276.269,172.206c-.829,0-1.555.026-2.151.078-.1.026-.052-.259-.026-.259.648-.078.985-.052.985-.441a5.935,5.935,0,0,0-.544-1.763l-.415-1.115H270.9l-.493,1.115a5.475,5.475,0,0,0-.6,1.763c0,.311.259.389.907.441.078,0,.1.285-.026.259a9.944,9.944,0,0,0-1.348-.078,10.136,10.136,0,0,0-1.426.078c-.1.026-.052-.259-.026-.259.959-.078,1.3-.648,2-2.229L272.951,163a.157.157,0,0,1,.259,0L275.8,169.8c.648,1.711.907,2.151,2.074,2.255.052.026.1.259-.052.259A8.61,8.61,0,0,0,276.269,172.206Zm-5.158-3.888h2.9l-1.3-3.6Z" transform="translate(-200.229 -162.936)"/><path class="a" d="M325.484,163.6a.505.505,0,0,0-.207.026,12.424,12.424,0,0,1-1.244.052h-.285c-.518,0-.933-.026-1.322-.052a.571.571,0,0,1-.207-.026c-.156,0-.052.181-.026.181.752.052,1.011.13,1.011.389s-.207.57-.57,1.166l-1.737,2.877-1.529-2.67a4.94,4.94,0,0,1-.57-1.322c0-.285.389-.363,1.089-.415.052,0,.13-.207-.026-.181-.6.052-1.633.078-2.488.078a15.5,15.5,0,0,1-1.659-.078c-.156,0-.1.181-.026.181,1.218.078,1.477.441,2.229,1.763l1.97,3.422v1.218c0,2.333-.078,2.307-1.452,2.437-.052,0-.13.311.026.285a19.782,19.782,0,0,1,2.307-.1,14.262,14.262,0,0,1,1.918.1c.156.026.1-.285.026-.285-1.4-.1-1.4-.207-1.4-2.437v-1.4l2.177-3.4c.726-1.141,1.037-1.555,2.022-1.633C325.536,163.781,325.614,163.6,325.484,163.6Z" transform="translate(-235.603 -163.428)"/></g><g transform="translate(0 15.828)"><path class="a" d="M50.8,227.759A4.012,4.012,0,0,1,54.818,224a3.657,3.657,0,0,1,3.836,3.525,4,4,0,0,1-4.044,3.759A3.6,3.6,0,0,1,50.8,227.759Zm.959-.337a3.226,3.226,0,0,0,3.111,3.551,2.789,2.789,0,0,0,2.825-3.059,3.265,3.265,0,0,0-3.111-3.577A2.784,2.784,0,0,0,51.759,227.422Z" transform="translate(-38.827 -224)"/><path class="a" d="M95.82,228.41a5.036,5.036,0,0,1-.855.052,1.968,1.968,0,0,1-.415-.026v1.27c0,1.529,0,1.607.985,1.685.026,0,.078.207-.026.207a10.213,10.213,0,0,0-1.322-.052,14.59,14.59,0,0,0-1.581.052c-.078.026-.052-.207,0-.207.959-.1,1.011-.078,1.011-1.685v-3.214c0-1.218-.026-1.581-.622-1.581a2.583,2.583,0,0,0-.415.052c-.052,0-.13-.156-.026-.181a12.87,12.87,0,0,1,2.67-.181c1.555,0,2.851.493,2.851,1.659a2.179,2.179,0,0,1-1.5,1.944c.57,1.529,2.255,3.4,3.447,3.4.026,0,.078.207,0,.207A4.26,4.26,0,0,1,95.82,228.41Zm-1.192-3.5a8.786,8.786,0,0,0-.078,1.5v1.763h.415c1.607,0,2.177-.57,2.177-1.452,0-1.452-.959-1.814-2.022-1.814A1.57,1.57,0,0,0,94.628,224.911Z" transform="translate(-69.72 -224.444)"/><path class="a" d="M138.981,231.592c-.389,0-.985-.052-1.763-.052-1.089,0-2.281,0-3.059.052-.078,0-.052-.181,0-.207,1.089-.13,1.089-.078,1.089-1.685v-3.214c0-1.607-.052-1.607-.985-1.711-.052,0-.078-.207,0-.181a14.6,14.6,0,0,0,1.581.052c.467,0,.985-.026,1.322-.052.1,0,.052.181.026.181-.985.078-.985.181-.985,1.711V229.7c0,1.3.078,1.452.622,1.452h.622c1.659,0,1.711-.078,1.84-.7,0-.026.181-.026.181.026a3.854,3.854,0,0,1-.156.881A.308.308,0,0,1,138.981,231.592Z" transform="translate(-100.543 -224.438)"/><path class="a" d="M171.466,231.547c-.622,0-1.27,0-1.737.052-.1,0-.052-.207,0-.207.959-.1,1.011-.078,1.011-1.685v-3.214c0-1.607-.052-1.607-1.011-1.711-.026,0-.1-.181,0-.181.441.052,1.192.052,1.84.052.259,0,1.27-.052,1.633-.052,2.566,0,3.862,1.478,3.862,3.37a3.711,3.711,0,0,1-3.992,3.577C172.684,231.573,171.725,231.547,171.466,231.547Zm.259-6.532a9.052,9.052,0,0,0-.078,1.478v3.6c0,1.037.156,1.166,1.711,1.166a2.683,2.683,0,0,0,2.748-2.9c0-2.255-1.244-3.4-3.214-3.4A7.705,7.705,0,0,0,171.725,225.015Z" transform="translate(-126.884 -224.444)"/><path class="a" d="M262.129,231.6c-.1,0-.052-.207,0-.207.959-.1,1.011-.078,1.011-1.685v-3.214c0-1.607-.052-1.607-1.011-1.711-.026,0-.1-.181,0-.181a14.591,14.591,0,0,0,1.581.052c.441,0,.985-.026,1.322-.052.1,0,.052.181,0,.181-.985.078-.985.181-.985,1.711v3.214c0,1.529,0,1.607.985,1.685.052,0,.1.207,0,.207a10.215,10.215,0,0,0-1.322-.052A14.6,14.6,0,0,0,262.129,231.6Z" transform="translate(-195.334 -224.444)"/><path class="a" d="M291.966,231.547c-.622,0-1.27,0-1.737.052-.1,0-.052-.207,0-.207.959-.1,1.011-.078,1.011-1.685v-3.214c0-1.607-.052-1.607-1.011-1.711-.026,0-.1-.181,0-.181.441.052,1.192.052,1.84.052.259,0,1.27-.052,1.633-.052,2.566,0,3.862,1.478,3.862,3.37a3.711,3.711,0,0,1-3.992,3.577C293.184,231.573,292.2,231.547,291.966,231.547Zm.259-6.532a9.052,9.052,0,0,0-.078,1.478v3.6c0,1.037.156,1.166,1.711,1.166a2.683,2.683,0,0,0,2.748-2.9c0-2.255-1.244-3.4-3.214-3.4A7.705,7.705,0,0,0,292.225,225.015Z" transform="translate(-216.15 -224.444)"/><path class="a" d="M334.35,231.592c-.389,0-1.089-.052-1.866-.052-1.089,0-2.177,0-2.955.052-.1,0-.052-.207,0-.207,1.089-.13,1.089-.078,1.089-1.685v-3.214c0-1.633-.026-1.581-1.089-1.711-.026,0-.1-.207,0-.181.778.052,1.84.078,2.929.078.8,0,1.529-.026,2.151-.078a2.407,2.407,0,0,0-.078.622v.415c0,.052-.181.026-.181,0-.078-.467-.311-.622-1.711-.622H331.6a9.679,9.679,0,0,0-.052,1.426v1.374h1.089c1.166,0,1.089-.078,1.166-.363,0-.026.181,0,.207.026a2.533,2.533,0,0,0-.052.674v.415c.026.052-.181.052-.181,0-.052-.337-.13-.467-1.115-.467h-1.089v1.555c0,1.4.181,1.529.674,1.529h.57c1.633,0,1.737-.13,1.892-.855,0-.026.207-.026.181.026a9.354,9.354,0,0,1-.207.985C334.609,231.54,334.558,231.592,334.35,231.592Z" transform="translate(-245.263 -224.438)"/><path class="a" d="M14.743,224.794a5.508,5.508,0,0,1-1.011.052c-.415,0-.752-.026-1.063-.052-.1,0-.052.181,0,.181.518.052.7.13.7.415a3.857,3.857,0,0,1-.389,1.244l-1.529,3.836-1.27-3.707.026-.052c.492-1.192.7-1.659,1.374-1.711.026,0,.078-.207,0-.181-.389.052-3.4.052-3.707,0-.078,0-.052.181,0,.181.8.078.778.467,1.322,1.711l.285.8-1.141,2.929-1.3-3.784a4.832,4.832,0,0,1-.311-1.244c0-.311.207-.389.881-.441.026,0,.052-.207-.026-.181-.415.052-1.218.052-1.789.052-.415,0-.829-.026-1.141-.052-.078,0-.052.181,0,.181.8.078.933.467,1.452,1.711l1.84,5.132c.026.078.156.052.181,0l1.607-3.81,1.348,3.81c.026.078.156.052.181,0l2.151-5.132c.492-1.192.7-1.659,1.374-1.711C14.795,224.975,14.821,224.768,14.743,224.794Zm-4.51.57a2.594,2.594,0,0,1-.207.8,2.931,2.931,0,0,1-.156-.752.334.334,0,0,1,.207-.337A.325.325,0,0,1,10.233,225.364Z" transform="translate(-4.611 -224.586)"/><path class="a" d="M219.569,224.794a5.508,5.508,0,0,1-1.011.052c-.415,0-.752-.026-1.063-.052-.1,0-.052.181,0,.181.518.052.7.13.7.415a3.857,3.857,0,0,1-.389,1.244l-1.529,3.836-1.27-3.707.026-.052c.493-1.192.7-1.659,1.374-1.711.026,0,.078-.207,0-.181-.389.052-3.4.052-3.707,0-.078,0-.052.181,0,.181.8.078.778.467,1.322,1.711l.285.8-1.166,2.955-1.3-3.784a4.832,4.832,0,0,1-.311-1.244c0-.311.207-.389.881-.441.026,0,.052-.207-.026-.181-.415.052-1.218.052-1.789.052-.415,0-.829-.026-1.141-.052-.078,0-.052.181,0,.181.8.078.933.467,1.452,1.711l1.84,5.132c.026.078.156.052.181,0l1.607-3.81,1.348,3.81c.026.078.156.052.181,0l2.151-5.132c.493-1.192.7-1.659,1.374-1.711C219.595,224.975,219.647,224.768,219.569,224.794Zm-4.51.57a2.6,2.6,0,0,1-.207.8,2.932,2.932,0,0,1-.156-.752.334.334,0,0,1,.207-.337A.325.325,0,0,1,215.059,225.364Z" transform="translate(-156.325 -224.586)"/></g></g><path class="a" d="M96.023,133.822H6.181c-.1,0-.181-.13-.181-.311,0-.156.078-.311.181-.311H96c.1,0,.181.13.181.311C96.2,133.693,96.127,133.822,96.023,133.822Z" transform="translate(-4.45 -98.673)"/><g transform="translate(0 0)"><path class="a" d="M28.216,18.352c0-3.4-1.581-5.469-4.718-6.247-.026,0-.052-.026-.026-.052a.025.025,0,0,1,.026-.026c2-.622,3.836-2.074,3.836-5.6,0-4.8-3.24-6.428-10.291-6.428H.092C.014,0,.014.311.092.311H.118A4.458,4.458,0,0,1,1.906.8c.492.311.441.544.441,1.27V23.821c0,.7.052.959-.467,1.27a4.924,4.924,0,0,1-1.789.492H.066c-.078.026-.052.337.026.337h17.6C25.105,25.921,28.216,22.966,28.216,18.352ZM11.16,4.873h3.4c2.592,0,4.121.389,4.121,2.748,0,1.529-.933,2.9-3.992,2.9H11.16a5.033,5.033,0,0,0-.622.052c.026-.207.026-.415.052-.622V5.443a5.034,5.034,0,0,0-.052-.622A2.63,2.63,0,0,0,11.16,4.873Zm0,16.045a4.254,4.254,0,0,0-.6.052s.026-.311.026-.622V15.112a5.034,5.034,0,0,0-.052-.622,5.034,5.034,0,0,0,.622.052h2.877c2.307,0,5.106,0,5.106,3.188,0,2.359-2.022,3.188-4.718,3.188H11.16Z" transform="translate(-0.019 0)"/><path class="a" d="M270.561,0H257.575c-.078,0-.1.311-.026.337h.026a3.51,3.51,0,0,1,1.685.492c.492.311.467.544.467,1.27V15.164c0,2.981-1.711,5.288-5.106,5.288s-5.106-2.281-5.106-5.288V2.074c0-.7-.052-.959.467-1.27a3.7,3.7,0,0,1,1.685-.492h.026c.078-.026.052-.311-.026-.311H239.4c-.1,0-.078.311,0,.311h.026A1.471,1.471,0,0,1,240.441.6c.415.337.467.752.467,1.477V14.93c0,6.2,3.4,11.457,13.686,11.457s13.66-5.262,13.66-11.457V2.074c0-.7-.052-.959.467-1.27a4.6,4.6,0,0,1,1.814-.492h.026C270.639.311,270.639,0,270.561,0Z" transform="translate(-177.303 0)"/><path class="a" d="M108.642.411h0a3.46,3.46,0,0,1,1.5.337,1.3,1.3,0,0,1,.311.207A5.479,5.479,0,0,1,111.6,2.329L120.565,15.6v8.321c0,.7.052.959-.467,1.27a4.458,4.458,0,0,1-1.789.492h-.026c-.078.026-.052.311.026.311H132.1c.078,0,.1-.311.026-.311H132.1a4.458,4.458,0,0,1-1.789-.492c-.493-.311-.467-.57-.467-1.27V15.653l8.969-13.323A6.205,6.205,0,0,1,140.032.878c.1-.078.233-.156.337-.233a1.638,1.638,0,0,1,.985-.233h.026c.078-.026.1-.311.026-.311H129.3c-.1,0-.078.311,0,.337h.026c.57,0,1.3,0,1.192.855-.052.8-3.551,5.832-4.8,7.776a2.6,2.6,0,0,0-.389.907,2.353,2.353,0,0,0-.389-.907c-1.737-2.592-4.692-6.765-4.8-7.776-.078-.855.6-.855,1.192-.855h.026c.078,0,.1-.311.026-.311H108.668C108.564.1,108.564.385,108.642.411Z" transform="translate(-80.445 -0.074)"/></g></svg>